<?xml version="1.0" encoding="UTF-8"?>
<svg id="Layer_1" xmlns="http://www.w3.org/2000/svg" width="104.51" height="15" version="1.1" viewBox="0 0 104.51 15">
  <!-- Generator: Adobe Illustrator 29.8.1, SVG Export Plug-In . SVG Version: 2.1.1 Build 2)  -->
  <defs>
    <style>
      .st0 {
        fill: #0067f0;
      }
    </style>
  </defs>
  <path class="st0" d="M0,12.1L3.67.62h2.09l3.67,11.48h-1.79l-.75-2.46H2.43l-.75,2.46H0ZM2.88,8.12h3.53l-1.44-4.7c-.03-.16-.07-.34-.13-.55-.05-.21-.1-.48-.16-.8h-.07c-.06.33-.11.61-.15.82-.04.21-.09.39-.13.54l-1.46,4.7Z"/>
  <path class="st0" d="M10.38,12.1V3.3h1.24l.2,1.04h.1c.23-.4.54-.71.9-.92.37-.21.79-.32,1.26-.32.66,0,1.19.2,1.61.61.41.41.62,1.11.62,2.1v6.29h-1.57v-6.04c0-.6-.11-1.01-.33-1.23-.22-.22-.52-.33-.89-.33-.41,0-.78.2-1.09.6-.31.4-.47.94-.47,1.61v5.39h-1.57Z"/>
  <path class="st0" d="M18.25,12.1V3.3h1.24l.2,1.04h.1c.23-.4.54-.71.9-.92.37-.21.79-.32,1.26-.32.66,0,1.19.2,1.61.61.41.41.62,1.11.62,2.1v6.29h-1.57v-6.04c0-.6-.11-1.01-.33-1.23-.22-.22-.52-.33-.89-.33-.41,0-.78.2-1.09.6-.31.4-.47.94-.47,1.61v5.39h-1.57Z"/>
  <path class="st0" d="M29.16,12.3c-1.1,0-1.94-.36-2.51-1.09-.57-.73-.85-1.9-.85-3.52s.28-2.75.84-3.49,1.39-1.11,2.49-1.11c.99,0,1.74.34,2.24,1.01.5.68.75,1.77.75,3.27v.75h-4.67c.01.95.16,1.65.44,2.12.28.46.71.69,1.31.69.41,0,.74-.17,1-.5s.38-.79.38-1.37h1.56c0,1.03-.27,1.82-.82,2.39s-1.26.85-2.13.85ZM27.46,6.83h3.01c0-.77-.11-1.36-.33-1.77-.22-.41-.56-.61-1-.61-.56,0-.97.2-1.22.6s-.41.99-.45,1.77Z"/>
  <path class="st0" d="M32.88,12.1l2.54-4.49-2.41-4.32h1.86l1.49,2.86h.03l1.54-2.86h1.74l-2.44,4.22,2.56,4.59h-1.86l-1.62-3.11h-.05l-1.67,3.11h-1.71Z"/>
  <path class="st0" d="M43.11,12.3c-.67,0-1.21-.2-1.62-.61-.41-.41-.62-1.11-.62-2.1V3.3h1.57v6.04c0,.6.11,1.01.33,1.23s.52.33.89.33c.42,0,.79-.2,1.1-.59.31-.4.46-.93.46-1.6V3.3h1.57v8.81h-1.24l-.2-1.04h-.1c-.23.4-.54.71-.9.92-.37.21-.78.32-1.24.32Z"/>
  <path class="st0" d="M48.73,12.1V3.3h1.24l.2,1.21h.1c.12-.35.3-.67.53-.96.23-.3.55-.44.98-.44.21,0,.45.04.7.13v1.59h-.54c-.29,0-.56.06-.81.18s-.45.33-.6.64c-.15.3-.23.71-.23,1.24v5.22h-1.57Z"/>
  <path class="st0" d="M56.6,12.3c-1.1,0-1.94-.36-2.51-1.09-.57-.73-.85-1.9-.85-3.52s.28-2.75.84-3.49,1.39-1.11,2.49-1.11c.99,0,1.74.34,2.24,1.01.5.68.75,1.77.75,3.27v.75h-4.67c.01.95.16,1.65.44,2.12.28.46.71.69,1.31.69.41,0,.74-.17,1-.5s.38-.79.38-1.37h1.56c0,1.03-.27,1.82-.82,2.39s-1.26.85-2.13.85ZM54.89,6.83h3.01c0-.77-.11-1.36-.33-1.77-.22-.41-.56-.61-1-.61-.56,0-.97.2-1.22.6s-.41.99-.45,1.77Z"/>
  <path class="st0" d="M65.17,12.3c-1.21,0-2.15-.33-2.82-.99-.68-.66-1.01-1.62-1.01-2.9V.62h1.69v7.83c0,.77.19,1.35.57,1.75.38.4.9.59,1.57.59s1.21-.2,1.59-.59c.38-.4.57-.98.57-1.75V.62h1.67v7.8c0,1.27-.34,2.24-1.02,2.9-.68.66-1.62.99-2.81.99Z"/>
  <path class="st0" d="M71.1,15V3.3h1.24l.2,1.04h.08c.21-.4.49-.71.83-.92.34-.21.71-.32,1.11-.32.85,0,1.52.37,2.02,1.1.5.74.75,1.91.75,3.52,0,1.06-.12,1.93-.35,2.61-.23.68-.55,1.18-.95,1.5s-.85.48-1.36.48c-.44,0-.82-.09-1.16-.27-.34-.18-.59-.43-.75-.75h-.08v3.72h-1.57ZM74.18,10.9c.51,0,.89-.23,1.14-.69.25-.46.37-1.19.37-2.18v-.64c0-.99-.12-1.72-.37-2.18-.25-.46-.63-.69-1.14-.69s-.89.24-1.14.73c-.25.49-.37,1.2-.37,2.15v.62c0,.95.12,1.67.37,2.16.25.49.63.74,1.14.74Z"/>
  <path class="st0" d="M81.43,12.3c-.85,0-1.52-.37-2.02-1.1-.5-.74-.75-1.91-.75-3.52,0-1.07.12-1.94.36-2.62.24-.68.56-1.17.96-1.49.4-.32.85-.48,1.34-.48.44,0,.82.09,1.16.28.34.18.59.44.74.78h.08V0h1.57v12.1h-1.24l-.2-1.04h-.08c-.21.4-.49.71-.82.92-.34.21-.71.32-1.12.32ZM81.81,10.9c.51,0,.89-.24,1.14-.73.25-.49.37-1.2.37-2.15v-.59c0-.96-.12-1.69-.37-2.18-.25-.5-.62-.74-1.14-.74s-.89.23-1.13.69c-.24.46-.36,1.19-.36,2.18v.64c0,.99.12,1.72.36,2.18.24.46.62.69,1.13.69Z"/>
  <path class="st0" d="M88.61,12.3c-.21,0-.45-.03-.71-.09s-.51-.18-.75-.36-.44-.43-.59-.75c-.15-.32-.23-.75-.23-1.27,0-.8.19-1.42.57-1.85.38-.43.9-.73,1.57-.9.67-.17,1.43-.25,2.28-.25v-1.05c0-.39-.08-.71-.24-.95-.16-.25-.49-.37-1-.37s-.81.13-.99.4c-.18.27-.27.55-.27.84v.22h-1.56c-.01-.06-.02-.11-.02-.17v-.2c0-.78.27-1.38.8-1.81.54-.42,1.23-.64,2.08-.64.94,0,1.63.22,2.08.65s.68,1.05.68,1.86v4.74c0,.21.05.36.15.45.1.09.21.13.32.13h.5v1.1c-.09.04-.22.09-.38.14-.16.05-.37.08-.61.08-.38,0-.69-.1-.94-.3-.25-.2-.42-.47-.52-.8h-.08c-.22.36-.51.64-.87.85-.36.21-.79.31-1.29.31ZM89.09,10.93c.3,0,.57-.08.82-.24.25-.16.45-.4.6-.72.16-.32.23-.69.23-1.13v-.7c-.54,0-1.01.04-1.43.13-.42.08-.75.24-1,.46-.25.22-.37.55-.37.99s.1.75.29.94.48.28.85.28Z"/>
  <path class="st0" d="M96.23,12.29c-.44,0-.78-.11-1.03-.32-.25-.21-.43-.48-.54-.8-.11-.32-.16-.66-.16-1.02v-5.47h-.8v-1.37h.8l.3-2.46h1.27v2.46h1.22v1.37h-1.22v5.49c0,.51.25.77.75.77h.47v1.12c-.12.07-.29.12-.49.17-.21.04-.4.07-.58.07Z"/>
  <path class="st0" d="M101.57,12.3c-1.1,0-1.94-.36-2.51-1.09-.57-.73-.85-1.9-.85-3.52s.28-2.75.84-3.49,1.39-1.11,2.49-1.11c.99,0,1.74.34,2.24,1.01.5.68.75,1.77.75,3.27v.75h-4.67c.01.95.16,1.65.44,2.12.28.46.71.69,1.31.69.41,0,.74-.17,1-.5s.38-.79.38-1.37h1.56c0,1.03-.27,1.82-.82,2.39s-1.26.85-2.13.85ZM99.86,6.83h3.01c0-.77-.11-1.36-.33-1.77-.22-.41-.56-.61-1-.61-.56,0-.97.2-1.22.6s-.41.99-.45,1.77Z"/>
</svg>